<?xml version="1.0" encoding="UTF-8"?>
<svg id="_레이어_1" data-name="레이어 1" xmlns="http://www.w3.org/2000/svg" viewBox="0 0 125.14 31.89">
  <defs>
    <style>
      .cls-1 {
        fill: #8c8c8c;
      }

      .cls-2 {
        fill: #404040;
      }
    </style>
  </defs>
  <path class="cls-1" d="m85.2,23.91h-9.14v-4.52h7.9c1.26,0,2.04-.73,2.04-1.73v-3.66c0-.99-.78-1.73-2.04-1.73h-7.9v-4.31h8.56c1.26,0,2.04-.73,2.04-1.73V0h-18.3v5.83c0,1-.55,1.36-1.44,1.36h-9.09c-1.22,0-1.95.59-1.95,1.99,0,1.14.54,2.09,2.03,3.02l7.44,4.3c3.28,1.98,3.63,3.88,3.63,7.09,0,5.6-3.13,8.3-8.04,8.3h26.29v-6.25c0-.99-.78-1.73-2.04-1.73Z"/>
  <path class="cls-1" d="m56.99,20.7l-5.73-3.47c-3.18-1.55-5.01-4.7-5.01-8.05C46.24,3.17,48.53,0,54.65,0h-14.32C38.53,0,37.97.67,37.97,2.13v14.35L27.8,1.68C26.83.44,26.27,0,24.85,0h-.83l-9.94,13.1,11.14,18.79h.03c1.79,0,2.35-.67,2.35-2.13v-14.58s9.17,13.75,10.17,15.03c.99,1.27,1.53,1.68,2.95,1.68h5.69v-5.83c0-1,.55-1.36,1.44-1.36h8.4c1.66,0,2.62-.18,2.62-1.47s-.19-1.55-1.89-2.52Z"/>
  <g>
    <g>
      <g>
        <path class="cls-2" d="m93.29,12.99c-.85-.78-1.42-1.76-1.42-2.99v-1.49c0-.09-.05-.13-.15-.13h-.63c-.09,0-.15.04-.15.13v1.49c.03,1.27-.58,2.29-1.51,3.1-.09.08-.09.16-.02.24l.39.44c.06.06.13.09.21.02.65-.51,1.15-1.23,1.42-1.89.29.66.79,1.31,1.29,1.77.09.07.16.05.22-.02l.39-.44c.07-.08.06-.17-.03-.25Z"/>
        <path class="cls-2" d="m95.36,10.78h-.78v-2.3c0-.11-.05-.16-.15-.16h-.62c-.09,0-.15.05-.15.16v6.04c0,.11.06.16.15.16h.62c.1,0,.15-.05.15-.16v-2.99h.78c.11,0,.16-.06.16-.15v-.45c0-.09-.05-.15-.16-.15Z"/>
      </g>
      <g>
        <path class="cls-2" d="m117.46,8.37h-.55c-.1,0-.15.05-.15.16v1.87h-.69c-.11,0-.16.06-.16.14v.43c0,.09.05.15.16.15h.69v3.22c0,.11.05.16.15.16h.55c.1,0,.15-.05.15-.16v-5.81c0-.11-.05-.16-.15-.16Z"/>
        <path class="cls-2" d="m115.41,10.35v-.98h.79c.11,0,.16-.06.16-.15v-.45c0-.09-.05-.14-.16-.14h-2.57c-.11,0-.16.06-.16.14v.45c0,.09.05.15.16.15h.89v.98c0,1.04-.35,1.93-1.15,2.69-.08.08-.08.15,0,.23l.38.36c.06.06.13.09.22.02.46-.42.82-1.01,1-1.52.21.51.56,1.04.95,1.38.09.08.17.06.23,0l.38-.36c.08-.08.06-.15-.02-.23-.78-.74-1.1-1.52-1.1-2.56Z"/>
        <path class="cls-2" d="m118.77,8.3h-.56c-.1,0-.15.05-.15.16v6.04c0,.11.05.16.15.16h.56c.1,0,.15-.05.15-.16v-6.04c0-.11-.05-.16-.15-.16Z"/>
      </g>
      <g>
        <path class="cls-2" d="m95.88,9.56h3.54c.11,0,.16-.06.16-.15v-.42c0-.09-.05-.14-.16-.14h-1.29v-.59c0-.11-.05-.16-.15-.16h-.6c-.08,0-.14.05-.14.16v.59h-1.36c-.11,0-.16.06-.16.14v.42c0,.09.05.15.16.15Z"/>
        <path class="cls-2" d="m99.71,13.18c-.02-.09-.07-.13-.18-.12-.5.07-.99.11-1.4.13v-.67c.52-.09,1.21-.52,1.21-1.35s-.71-1.4-1.67-1.4-1.67.57-1.67,1.4.72,1.27,1.23,1.35v.71h-1.45c-.11,0-.16.06-.16.15v.45c0,.09.05.15.15.15,1.31,0,2.79-.04,3.84-.23.11-.02.15-.08.13-.17l-.05-.41Zm-2.86-2.01c0-.43.35-.72.81-.72s.81.29.81.72-.35.72-.81.72-.81-.29-.81-.72Z"/>
        <path class="cls-2" d="m100.77,8.32h-.62c-.09,0-.15.05-.15.15v6.05c0,.11.06.16.15.16h.62c.1,0,.15-.06.15-.2v-6.03c0-.09-.05-.13-.15-.13Z"/>
      </g>
      <g>
        <path class="cls-2" d="m102.27,12.49v.43c0,.09.05.15.16.15h3.51s0,1.46,0,1.46c0,.11.06.16.15.16h.6c.09,0,.14-.05.14-.16v-2.18h-4.41c-.11,0-.16.06-.16.14Z"/>
        <path class="cls-2" d="m103.46,10.73c.29.51.78.93,1.3,1.19.09.05.17,0,.21-.06l.3-.45c.05-.09.03-.17-.07-.22-.66-.35-1.27-.96-1.27-1.81v-.17h1.12c.11,0,.16-.06.16-.15v-.43c0-.09-.05-.14-.15-.14h-3.16c-.11,0-.16.06-.16.14v.43c0,.09.05.15.16.15h1.11v.17c0,.85-.6,1.53-1.38,1.94-.1.06-.13.13-.08.22l.3.45c.05.07.11.12.21.06.65-.32,1.16-.81,1.41-1.31Z"/>
        <path class="cls-2" d="m106.69,8.32h-.6c-.09,0-.15.05-.15.16v1.24h-.85c-.11,0-.16.06-.16.14v.43c0,.09.05.15.16.15h.85v1.4c0,.11.06.16.15.16h.6c.09,0,.14-.05.14-.16v-3.39c0-.09-.05-.13-.14-.13Z"/>
      </g>
      <g>
        <path class="cls-2" d="m112.62,8.32h-.6c-.09,0-.15.05-.15.16v.68h-1.18c.03-.21.05-.44.05-.67h-2.76c-.11,0-.16.06-.16.14v.44c0,.09.05.15.16.15h1.76c-.13.94-.85,1.71-2.05,2.1-.11.03-.16.09-.13.19l.19.47c.02.08.08.13.18.11,1.32-.39,2.18-1.15,2.57-2.22h1.35v.7h-1.27c-.11,0-.16.06-.16.14v.43c0,.09.05.15.16.15h1.27v.55c0,.11.06.16.15.16h.6c.09,0,.14-.05.14-.16v-3.39c0-.09-.05-.13-.14-.13Z"/>
        <path class="cls-2" d="m110.53,12.02c-1.34,0-2.24.47-2.24,1.33s.9,1.33,2.24,1.33,2.24-.47,2.24-1.33-1-1.33-2.24-1.33Zm0,1.95c-.83,0-1.34-.22-1.34-.62s.51-.62,1.34-.62c.74,0,1.34.22,1.34.62s-.51.62-1.34.62Z"/>
      </g>
    </g>
    <g>
      <g>
        <path class="cls-2" d="m100.46,16.74h-.62c-.09,0-.15.04-.15.13v1.03h-1c-.1,0-.15.06-.15.14v.43c0,.09.05.15.15.15h1v1.69c0,.13.06.18.15.18h.62c.1,0,.15-.05.15-.16v-3.47c0-.09-.05-.13-.15-.13Z"/>
        <path class="cls-2" d="m97.25,19.02c.29.55.72.97,1.31,1.19.1.03.17,0,.21-.07l.28-.47c.04-.09.02-.15-.09-.19-.83-.34-1.24-1.04-1.24-1.77v-.72c0-.09-.05-.14-.15-.14h-.62c-.09,0-.15.04-.15.13v.71c0,.78-.47,1.6-1.38,2.04-.1.05-.13.11-.08.2l.3.4c.06.07.11.09.21.06.66-.32,1.15-.8,1.41-1.38Z"/>
        <path class="cls-2" d="m98.39,20.5c-1.36,0-2.22.51-2.22,1.3s.86,1.3,2.22,1.3,2.22-.51,2.22-1.3-.86-1.3-2.22-1.3Zm0,1.89c-.85,0-1.29-.24-1.29-.59s.47-.59,1.29-.59,1.29.24,1.29.59-.47.59-1.29.59Z"/>
      </g>
      <g>
        <path class="cls-2" d="m95.24,18.24h-.65v-1.34c0-.11-.05-.16-.15-.16h-.62c-.09,0-.15.05-.15.15v3.46c0,.11.06.16.15.16h.62c.1,0,.15-.05.15-.16v-1.36h.65c.11,0,.16-.06.16-.16v-.45c0-.09-.05-.14-.16-.14Z"/>
        <path class="cls-2" d="m94.65,22.45h-3.42v-.32h3.35v-1.42h-4.15c-.11,0-.16.04-.16.11v.34c0,.09.05.15.16.15h3.26v.28h-3.35v1.47h4.31c.11,0,.16-.05.16-.12v-.35c0-.09-.05-.14-.16-.14Z"/>
        <path class="cls-2" d="m89.69,17.59h3.42c.11,0,.16-.06.16-.15v-.34c0-.08-.05-.12-.16-.12h-1.23v-.33c0-.11-.05-.16-.15-.16h-.63c-.09,0-.15.05-.15.16v.33h-1.26c-.11,0-.16.04-.16.12v.34c0,.09.05.15.16.15Z"/>
        <path class="cls-2" d="m93.45,20.1l-.03-.31c0-.09-.07-.13-.18-.11-.38.05-.89.09-1.33.11v-.28c.68-.1,1.12-.36,1.12-.87,0-.57-.62-.92-1.6-.92s-1.59.35-1.59.92c0,.51.47.77,1.15.87v.32h-1.39c-.11,0-.16.06-.16.15v.32c0,.09.05.15.15.15,1.32,0,2.63-.05,3.73-.19.11-.02.14-.07.13-.16Zm-2.76-1.46c0-.21.29-.34.74-.34s.74.13.74.34-.29.34-.74.34-.74-.13-.74-.34Z"/>
      </g>
      <g>
        <path class="cls-2" d="m101.42,17.98h3.48c.11,0,.16-.06.16-.15v-.42c0-.09-.05-.14-.16-.14h-1.24v-.59c0-.11-.05-.16-.15-.16h-.62c-.09,0-.15.05-.15.16v.59h-1.31c-.11,0-.16.06-.16.14v.42c0,.09.05.15.16.15Z"/>
        <path class="cls-2" d="m105.16,21.61c0-.09-.06-.13-.17-.12-.5.07-.99.11-1.34.13v-.69c.51-.09,1.14-.51,1.14-1.33s-.69-1.38-1.61-1.38-1.59.56-1.59,1.38.66,1.24,1.16,1.33v.73h-1.37c-.11,0-.16.06-.16.15v.45c0,.09.05.15.15.15,1.31,0,2.66-.03,3.71-.22.11-.02.15-.08.13-.17l-.06-.41Zm-2.72-2.01c0-.4.32-.7.74-.7s.75.29.75.7-.34.7-.75.7-.74-.29-.74-.7Z"/>
        <path class="cls-2" d="m107.01,19.35h-.68v-2.46c0-.11-.05-.16-.15-.16h-.6c-.09,0-.15.05-.15.16v6.04c0,.11.06.16.15.16h.6c.1,0,.15-.05.15-.15v-2.84h.68c.11,0,.16-.06.16-.15v-.45c0-.09-.05-.15-.16-.15Z"/>
      </g>
    </g>
    <g>
      <g>
        <path class="cls-2" d="m112.64,29.26v-.43c0-.09-.05-.15-.16-.15h-3.61v-.87h3.42c.11,0,.16-.06.16-.14v-.41c0-.09-.05-.15-.16-.15h-3.42v-.79h3.57c.11,0,.16-.06.16-.14v-.44c0-.09-.05-.15-.16-.15h-4.49v3.82h4.54c.11,0,.16-.06.16-.14Z"/>
        <path class="cls-2" d="m112.98,30.34h-5.44c-.11,0-.16.06-.16.15v.45c0,.09.05.14.16.14h5.44c.11,0,.16-.06.16-.14v-.45c0-.09-.05-.15-.16-.15Z"/>
      </g>
      <g>
        <path class="cls-2" d="m115.43,28.34c1.03,0,1.75-.63,1.75-1.49s-.72-1.49-1.75-1.49-1.75.62-1.75,1.49.72,1.49,1.75,1.49Zm0-2.29c.51,0,.89.33.89.8s-.38.8-.89.8-.89-.33-.89-.8.38-.8.89-.8Z"/>
        <path class="cls-2" d="m118.62,25.28h-.62c-.09,0-.15.05-.15.15v4.4h-1.12c-.1,0-.15.06-.15.14v.41c0,.09.05.15.15.15h1.12v.95c0,.11.06.16.15.16h.62c.1,0,.15-.05.15-.16v-6.05c0-.1-.05-.15-.15-.15Z"/>
        <path class="cls-2" d="m117.37,29.22c.11-.02.15-.08.13-.17l-.05-.41c-.02-.09-.07-.13-.18-.12-.66.1-1.54.17-2.29.17h-1.45c-.11,0-.16.06-.16.15v.45c0,.09.05.15.15.15.45,0,.92,0,1.39-.02v1.97c0,.11.06.16.15.16h.61c.1,0,.15-.05.15-.16v-2.01c.56-.04,1.09-.09,1.54-.17Z"/>
      </g>
      <path class="cls-2" d="m100.97,27.67h-.57c.1-.51.17-1.23.17-1.7v-.51h-4.45c-.11,0-.16.06-.16.15v.44c0,.09.05.14.16.14h3.55c0,.42-.04.98-.13,1.48h-4.01c-.11,0-.16.06-.16.15v.44c0,.09.05.14.16.14h2.26v.91h-1.8c-.11,0-.16.06-.16.15v.43c0,.09.05.14.16.14h3.67v1.43c0,.13.06.18.15.18h.62c.1,0,.15-.05.15-.16v-2.18h-1.88v-.91h2.27c.11,0,.16-.06.16-.14v-.44c0-.09-.05-.15-.16-.15Z"/>
      <g>
        <path class="cls-2" d="m92.85,27.01v.43c0,.09.05.15.15.15h.85v2.14c0,.13.06.18.15.18h.61c.1,0,.15-.05.15-.16v-4.34c0-.09-.05-.13-.13-.13h-.64c-.09,0-.13.05-.13.13v1.46h-.85c-.1,0-.15.06-.15.14Z"/>
        <path class="cls-2" d="m94.74,30.79h-3.44v-1.12c0-.11-.05-.16-.14-.16h-.62c-.09,0-.14.05-.14.16v1.83h4.35c.11,0,.16-.05.16-.13v-.43c0-.09-.05-.15-.16-.15Z"/>
        <path class="cls-2" d="m91.39,27.87c.28.54.8,1,1.31,1.24.09.05.17,0,.21-.06l.28-.45c.05-.09.03-.17-.07-.22-.66-.35-1.27-.99-1.27-1.87v-.27h1.12c.11,0,.16-.06.16-.15v-.43c0-.09-.05-.14-.15-.14h-3.16c-.11,0-.16.06-.16.14v.43c0,.09.05.15.16.15h1.11v.28c0,.91-.61,1.58-1.38,1.99-.1.06-.13.13-.08.22l.28.45c.05.07.11.11.21.06.65-.32,1.19-.85,1.42-1.37Z"/>
      </g>
      <g>
        <path class="cls-2" d="m119.86,28.39c1.27,0,2.54-.06,3.8-.18-.02.39-.08.83-.16,1.26-.02.11.04.17.13.17l.59.07c.1.02.16-.02.17-.13.17-.93.25-2.1.25-3.18v-.74h-4.56c-.11,0-.16.06-.16.15v.44c0,.09.05.14.16.14h3.65v.02c0,.32,0,.79-.02,1.14-1.27.09-2.63.13-3.86.13-.11,0-.16.06-.16.15v.44c0,.09.05.14.16.14Z"/>
        <path class="cls-2" d="m124.98,30.23h-5.44c-.11,0-.16.06-.16.15v.45c0,.09.05.14.16.14h5.44c.11,0,.16-.06.16-.14v-.45c0-.09-.05-.15-.16-.15Z"/>
      </g>
      <g>
        <path class="cls-2" d="m106.69,25.28h-.56c-.1,0-.15.05-.15.16v6.04c0,.11.05.16.15.16h.56c.1,0,.15-.05.15-.16v-6.04c0-.11-.05-.16-.15-.16Z"/>
        <path class="cls-2" d="m104.3,29.7c0-.09-.06-.13-.17-.12-.49.08-1.08.12-1.61.12v-4c0-.09-.05-.13-.13-.13h-.62c-.09,0-.13.05-.13.13v4.79h.44c.67,0,1.53-.06,2.16-.17.11-.02.15-.08.13-.17l-.06-.46Z"/>
        <path class="cls-2" d="m105.33,25.35h-.55c-.1,0-.15.05-.15.16v1.87h-1.1c-.1,0-.15.06-.15.15v.44c0,.09.05.15.15.15h1.1v3.21c0,.11.05.16.15.16h.55c.1,0,.15-.05.15-.16v-5.81c0-.11-.05-.16-.15-.16Z"/>
      </g>
    </g>
  </g>
  <path class="cls-2" d="m14.09,13.1L24.03,0h-7.01C15.45,0,14.78.41,14.07,1.46l-6.16,8.83V2.13C7.91.67,7.35,0,5.56,0h-3.21c-1.79,0-2.35.67-2.35,2.13v27.63c0,1.46.56,2.13,2.35,2.13h3.21c1.79,0,2.35-.67,2.35-2.13v-8.52l1.52-2,6.36,11.23c.63,1.05,1.23,1.42,2.8,1.42h6.64L14.09,13.1Z"/>
</svg>