<?xml version="1.0" encoding="UTF-8"?>
<svg id="_레이어_1" data-name="레이어 1" xmlns="http://www.w3.org/2000/svg" viewBox="0 0 63.67 31.91">
  <defs>
    <style>
      .cls-1 {
        fill: #fff;
      }

      .cls-2 {
        fill: #00ced8;
      }
    </style>
  </defs>
  <path class="cls-2" d="m17.51,31.86c-.11,0-.22,0-.34-.01-2.11-.13-3.74-1.53-4.66-2.53l-.39.44s-.03.04-.05.05c-1.59,1.55-3.26,2.22-4.99,1.99-1.31-.17-2.62-.9-3.79-2.09-.72-.74-1.18-1.44-1.31-1.66-1.08-1.41-1.73-3.65-1.93-6.65-.13-2.01,0-3.69.02-3.99V4.88C.08,2.19,2.27,0,4.96,0s4.88,2.19,4.88,4.88v6.38c1.43-.68,3-1.04,4.61-1.04,5.7,0,10.4,4.46,10.71,10.14v.2c.57,4.58-2.14,8.1-2.26,8.25,0,0-.02.02-.02.03-1.68,2-3.49,3-5.37,3Zm-3.67-4.15c.63.75,1.91,1.99,3.47,2.09,1.31.08,2.65-.68,3.98-2.25.15-.2,2.29-3.13,1.84-6.75,0-.02,0-.05,0-.07v-.24c-.26-4.6-4.06-8.2-8.66-8.2-1.82,0-3.57.56-5.04,1.62-.31.22-.73.26-1.07.08-.34-.18-.56-.53-.56-.92v-.52s0-7.66,0-7.66c0-1.56-1.27-2.82-2.82-2.82s-2.82,1.27-2.82,2.82v12.57s0,.06,0,.09c-.16,1.84-.21,7.1,1.51,9.28.03.04.05.07.08.11.01.02,1.54,2.54,3.65,2.82,1.05.14,2.14-.33,3.24-1.4l.62-.7-4.14-5.6c-.49-.66-.69-1.47-.57-2.29.12-.81.55-1.53,1.22-2.02,1.36-1,3.28-.72,4.29.63l.52.65.53-.65c1.01-1.35,2.93-1.63,4.29-.63,1.36,1.01,1.66,2.94.65,4.3l-4.17,5.65Zm-4.27-8.5c-.21,0-.42.06-.6.2-.22.16-.36.4-.4.67-.04.27.03.54.19.76l3.8,5.15,3.8-5.15c.33-.45.24-1.09-.21-1.43-.45-.33-1.09-.24-1.43.21,0,.01-.02.03-.03.04l-1.1,1.36-.2.28c-.19.26-.49.41-.81.42-.32,0-.62-.14-.82-.39l-1.34-1.67s-.02-.02-.02-.03c-.2-.27-.51-.41-.82-.41Z"/>
  <g>
    <path class="cls-1" d="m35.79,17.78c0,1.55-1.27,2.57-2.83,2.57h-3.69v-8.78h3.43c1.53,0,2.77.99,2.77,2.51,0,.73-.29,1.3-.76,1.72.65.41,1.08,1.09,1.08,1.98Zm-4.51-4.33v1.55h1.43c.45,0,.76-.33.76-.78s-.3-.78-.76-.78h-1.43Zm2.51,4.17c0-.49-.33-.84-.83-.84h-1.68v1.68h1.68c.5,0,.83-.35.83-.84Z"/>
    <path class="cls-1" d="m42.79,14.08v6.27h-1.88v-.59c-.34.46-.97.76-1.79.76-1.27,0-2.34-.9-2.34-2.6v-3.85h1.88v3.57c0,.78.49,1.14,1.09,1.14.69,0,1.17-.4,1.17-1.29v-3.42h1.88Z"/>
    <path class="cls-1" d="m50.12,14.08l-2.14,6.08c-.7,1.99-1.82,2.78-3.57,2.7v-1.76c.88,0,1.29-.28,1.57-1.04l-2.49-5.98h2.07l1.39,3.84,1.18-3.84h2.01Z"/>
    <path class="cls-1" d="m28.83,29.74l1.73-1c.31.73.85,1.22,1.84,1.22s1.19-.38,1.19-.71c0-.54-.5-.75-1.82-1.12-1.3-.36-2.58-.99-2.58-2.67s1.43-2.67,2.95-2.67,2.57.69,3.21,1.98l-1.69.99c-.3-.63-.71-1.02-1.52-1.02-.63,0-.94.31-.94.66,0,.4.21.68,1.58,1.09,1.33.4,2.82.87,2.82,2.72,0,1.69-1.35,2.7-3.26,2.7s-3.02-.88-3.51-2.17Z"/>
    <path class="cls-1" d="m36.42,28.6c0-1.87,1.48-3.31,3.32-3.31s3.32,1.44,3.32,3.31-1.48,3.31-3.32,3.31-3.32-1.44-3.32-3.31Zm4.76,0c0-.89-.63-1.48-1.44-1.48s-1.44.59-1.44,1.48.63,1.48,1.44,1.48,1.44-.59,1.44-1.48Z"/>
    <path class="cls-1" d="m43.81,28.6c0-1.87,1.42-3.31,3.32-3.31,1.22,0,2.29.64,2.83,1.6l-1.64.95c-.21-.44-.66-.7-1.22-.7-.81,0-1.42.59-1.42,1.45s.6,1.45,1.42,1.45c.55,0,1.02-.26,1.22-.7l1.64.94c-.54.98-1.6,1.62-2.83,1.62-1.91,0-3.32-1.44-3.32-3.31Z"/>
    <path class="cls-1" d="m50.53,23.78c0-.61.51-1.13,1.13-1.13s1.13.51,1.13,1.13-.51,1.13-1.13,1.13-1.13-.51-1.13-1.13Zm.19,1.68h1.88v6.27h-1.88v-6.27Z"/>
    <path class="cls-1" d="m60.41,25.46v6.27h-1.88v-.59c-.41.48-1.03.76-1.87.76-1.64,0-3-1.44-3-3.31s1.35-3.31,3-3.31c.84,0,1.45.29,1.87.76v-.59h1.88Zm-1.88,3.13c0-.94-.63-1.53-1.49-1.53s-1.49.59-1.49,1.53.63,1.53,1.49,1.53,1.49-.59,1.49-1.53Z"/>
    <path class="cls-1" d="m61.79,22.58h1.88v9.15h-1.88v-9.15Z"/>
  </g>
  <g>
    <path class="cls-1" d="m50.81,14.16h1.24v.32h-.87v1.15h.22c.27,0,.61-.02.88-.06l.04.32c-.27.04-.66.06-1.01.06h-.5v-1.79Zm1.09.68h.66v-.92h.37v2.73h-.37v-1.5h-.66v-.32Z"/>
    <path class="cls-1" d="m53.66,15.61h.16c.27,0,.61-.02.88-.06l.04.32c-.27.04-.66.06-1.01.06h-.44v-1.79h.37v1.47Zm1.6-.75h.37v.32h-.37v1.47h-.37v-2.73h.37v.94Z"/>
    <path class="cls-1" d="m58.06,15.33v.31h-2.45v-.31h2.45Zm-1.74.98h1.45v.31h-1.81v-.82h.36v.5Zm-.36-1.69v-.11c0-.34.36-.54.88-.54s.88.2.88.54v.11c0,.34-.36.54-.88.54s-.88-.2-.88-.54Zm.36-.09v.08c0,.14.2.26.52.26s.52-.12.52-.26v-.08c0-.14-.2-.26-.52-.26s-.52.12-.52.26Z"/>
    <path class="cls-1" d="m50.8,18.12v-.13c0-.29.26-.53.64-.53s.64.25.64.53v.13c0,.29-.26.53-.64.53s-.64-.25-.64-.53Zm.2-.11v.09c0,.2.18.37.45.37s.45-.17.45-.37v-.09c0-.2-.19-.37-.45-.37s-.45.17-.45.37Zm1.85.87v.69h-1.41v.34h1.48v.18h-1.68v-.69h1.41v-.34h-1.42v-.18h1.62Zm0-.16h-.2v-1.32h.2v1.32Z"/>
    <path class="cls-1" d="m53.92,18.28s-.1.14-.22.26c-.1.1-.27.24-.43.37l-.13-.15c.16-.12.34-.27.47-.4.18-.19.2-.26.2-.48v-.37h.21v.36c0,.22.02.29.21.46.14.13.29.25.42.34l-.12.14c-.15-.12-.28-.22-.38-.31-.13-.11-.21-.19-.22-.24h0Zm1.31,1.26v.11c0,.31-.35.5-.78.5s-.78-.19-.78-.5v-.11c0-.31.35-.5.78-.5s.78.19.78.5Zm-.2.1v-.09c0-.21-.28-.34-.59-.34s-.59.13-.59.34v.09c0,.21.28.33.59.33s.59-.13.59-.33Zm.18-1.57h.4v.18h-.4v.72h-.2v-1.58h.2v.68Z"/>
    <path class="cls-1" d="m58.05,18.6v.18h-2.42v-.18h2.42Zm-.36.41v.63h-1.5v.29h1.57v.17h-1.77v-.63h1.5v-.28h-1.51v-.17h1.71Zm-.03-1.06c0,.28-.36.44-.82.44s-.82-.17-.82-.44v-.09c0-.28.36-.44.82-.44s.82.17.82.44v.09Zm-1.45,0c0,.16.28.28.62.28s.62-.12.62-.28v-.07c0-.16-.28-.28-.62-.28s-.62.12-.62.28v.07Z"/>
    <path class="cls-1" d="m59.44,18.35c0,.05-.1.14-.22.26-.1.1-.27.24-.43.37l-.13-.15c.16-.12.34-.27.47-.4.18-.18.2-.26.2-.48v-.43h.21v.43c0,.22.02.29.21.46.14.13.29.25.42.34l-.12.14c-.15-.12-.28-.22-.38-.31-.13-.11-.21-.19-.22-.24h0Zm-.07,1.52h1.45v.18h-1.65v-.9h.2v.72Zm1.36-1.7h.4v.18h-.4v.96h-.2v-1.92h.2v.77Z"/>
    <path class="cls-1" d="m61.3,17.64h1.2v.19h-.99v1.35h.34c.29,0,.57-.02.9-.07l.03.19c-.31.06-.65.08-.97.08h-.49v-1.72Zm1.89.75h.44v.18h-.44v1.5h-.2v-2.69h.2v1Z"/>
  </g>
</svg>